<svg id="Capa_1" enable-background="new 0 0 512.029 512.029" height="512" viewBox="0 0 512.029 512.029" width="512" xmlns="http://www.w3.org/2000/svg"><g><g><path d="m434.355 485.934c0 10.27-8.325 18.595-18.595 18.595h-319.491c-10.27 0-18.595-8.325-18.595-18.595v-184.144c0-7.181 2.662-14.106 7.47-19.439 9.96-11.045 9.96-27.833 0-38.878-4.809-5.333-7.47-12.258-7.47-19.439v-17.83-.763c0-50.277 24.884-97.294 66.457-125.569l101.812-69.243c6.078-4.134 14.064-4.134 20.142 0l101.812 69.243c41.573 28.274 66.457 75.292 66.457 125.569v.763 17.83c0 7.181-2.662 14.106-7.47 19.439-9.96 11.045-9.96 27.833 0 38.878 4.809 5.333 7.47 12.258 7.47 19.439v184.144z" fill="#aca6d6"/><path d="m367.898 79.872-101.812-69.243c-5.609-3.815-12.84-4.1-18.7-.874.49.27.974.555 1.443.874l101.812 69.243c41.573 28.274 66.457 75.292 66.457 125.569v.763 17.83c0 7.181-2.661 14.106-7.47 19.439-9.96 11.045-9.96 27.833 0 38.878 4.809 5.333 7.47 12.258 7.47 19.439v184.144c0 10.27-8.325 18.595-18.595 18.595h17.257c10.27 0 18.595-8.325 18.595-18.595v-184.144c0-7.181-2.661-14.106-7.47-19.439-9.961-11.045-9.961-27.833 0-38.878 4.809-5.333 7.47-12.258 7.47-19.439v-17.83-.763c0-50.277-24.884-97.295-66.457-125.569z" fill="#978ecb"/><path d="m402.354 222.909c-19.99 23-19.99 57 0 80.01v169.61h-292.68v-169.61c19.99-23.01 19.99-57 0-80.01v-17.47c0-39.72 19.61-76.77 52.45-99.11l93.89-63.85 93.89 63.85c32.84 22.34 52.45 59.39 52.45 99.11z" fill="#5a74d1"/><path d="m402.354 205.439c0-39.72-19.61-76.77-52.45-99.11l-93.89-63.85-10.45 7.107 83.44 56.743c32.84 22.34 52.45 59.39 52.45 99.11v17.47c-19.99 23-19.99 57 0 80.01v169.61h20.9v-169.61c-19.99-23.01-19.99-57.01 0-80.01z" fill="#4f66d0"/><path d="m155.124 257.509h56.26v215.02h-56.26z" fill="#ffe5c2"/><path d="m190.484 257.509h20.9v215.02h-20.9z" fill="#fed2a4"/><path d="m196.255 201.045-13.001-10.602-16.001 10.602c-7.676 6.259-12.129 15.638-12.129 25.542v30.917h56.262v-30.917c-.001-9.904-7.455-19.283-15.131-25.542z" fill="#fed2a4"/><path d="m196.255 201.045-13.001-10.602-11.531 7.64 3.632 2.962c7.676 6.259 15.129 15.638 15.129 25.542v30.917h20.9v-30.917c.001-9.904-7.453-19.283-15.129-25.542z" fill="#ffbd86"/><path d="m361.567 348.638h-116.5v-12.499c0-18.512 9.654-35.685 25.47-45.306l32.78-19.94 32.78 19.94c15.816 9.621 25.47 26.793 25.47 45.306z" fill="#fed2a4"/><path d="m336.097 290.833-32.78-19.94-10.45 6.357 22.33 13.584c15.816 9.621 25.47 26.793 25.47 45.306v12.499h20.9v-12.499c0-18.513-9.654-35.686-25.47-45.307z" fill="#ffbd86"/><path d="m402.354 376.689v95.84h-212.07v-86.812c0-4.986 4.042-9.028 9.028-9.028z" fill="#fff3de"/><path d="m381.454 376.689h20.9v95.84h-20.9z" fill="#ffe5c2"/><path d="m211.384 348.639h190.97v28.05h-190.97z" fill="#97da7b"/><path d="m381.454 348.639h20.9v28.05h-20.9z" fill="#80d261"/><path d="m325.294 432.499v40.03h-43.96v-40.03c0-12.14 9.84-21.98 21.98-21.98 6.07 0 11.56 2.46 15.54 6.44 3.98 3.97 6.44 9.47 6.44 15.54z" fill="#c38f86"/><path d="m318.854 416.959c-3.98-3.98-9.47-6.44-15.54-6.44-3.022 0-5.901.611-8.522 1.714 2.642 1.113 5.022 2.728 7.021 4.726 3.98 3.97 6.44 9.47 6.44 15.54v40.03h17.041v-40.03c0-6.07-2.46-11.57-6.44-15.54z" fill="#b87d72"/></g><g><path d="m441.855 224.034v-18.593c0-52.811-26.071-102.07-69.74-131.77l-101.812-69.243c-8.68-5.904-19.898-5.904-28.578 0l-101.811 69.242c-10.403 7.075-19.958 15.381-28.4 24.685-2.783 3.068-2.553 7.812.515 10.595s7.811 2.552 10.595-.515c7.646-8.428 16.302-15.951 25.727-22.361l100.163-68.124v20.559l-90.608 61.618c-34.897 23.739-55.731 63.107-55.731 105.312v17.47c0 1.808.652 3.555 1.838 4.919 17.663 20.33 17.663 49.842 0 70.172-1.186 1.364-1.838 3.111-1.838 4.919v169.61c0 4.143 3.357 7.5 7.5 7.5h292.68c4.143 0 7.5-3.357 7.5-7.5v-169.61c0-1.808-.652-3.555-1.838-4.919-17.666-20.334-17.667-49.846-.001-70.171 1.186-1.364 1.839-3.112 1.839-4.92v-17.47c0-42.204-20.834-81.572-55.732-105.313l-90.607-61.618v-20.558l100.165 68.123c39.559 26.904 63.176 71.527 63.176 119.367v18.593c0 5.334-1.968 10.454-5.54 14.417-12.577 13.945-12.577 34.978-.001 48.923 3.573 3.963 5.541 9.083 5.541 14.417v184.144c0 6.117-4.978 11.095-11.096 11.095h-319.492c-6.118 0-11.096-4.978-11.096-11.095v-184.143c0-5.334 1.968-10.454 5.54-14.416 12.577-13.946 12.577-34.979.001-48.924-3.573-3.963-5.541-9.083-5.541-14.417v-18.593c0-24.188 6.146-48.184 17.773-69.395 1.991-3.633.661-8.191-2.971-10.182-3.633-1.994-8.192-.662-10.182 2.971-12.836 23.415-19.621 49.904-19.621 76.605v18.593c0 9.051 3.339 17.738 9.401 24.463 7.412 8.218 7.412 20.613-.001 28.832-6.062 6.724-9.4 15.411-9.4 24.462v184.144c0 14.389 11.706 26.095 26.096 26.095h319.49c14.39 0 26.096-11.706 26.096-26.095v-184.143c0-9.051-3.339-17.738-9.401-24.463-7.412-8.218-7.412-20.613.001-28.832 6.062-6.724 9.401-15.412 9.401-24.462zm-138.538 55.637 28.883 17.569c13.488 8.206 21.867 23.11 21.867 38.898v4.999h-101.5v-4.999c0-15.788 8.379-30.692 21.867-38.898zm91.537 76.468v13.05h-175.97v-13.05zm-190.969-106.136h-41.262v-23.416c0-7.566 3.313-14.657 9.102-19.509l11.069-7.334 8.723 7.112c7.744 6.317 12.368 13.693 12.368 19.73zm-41.26 15.006h13.129v33.328c0 4.143 3.357 7.5 7.5 7.5s7.5-3.357 7.5-7.5v-33.328h13.131v83.63 20.55h-4.572c-9.113 0-16.528 7.414-16.528 16.527v79.313h-20.159v-200.02zm232.229 200.02h-20.39v-31.86c0-4.143-3.357-7.5-7.5-7.5s-7.5 3.357-7.5 7.5v31.86h-70.63v-32.53c0-7.984 6.495-14.479 14.479-14.479 3.865 0 7.501 1.507 10.243 4.249 2.732 2.726 4.237 6.359 4.237 10.23v5.025c0 4.143 3.357 7.5 7.5 7.5s7.5-3.357 7.5-7.5v-5.025c0-7.885-3.069-15.29-8.637-20.844-5.569-5.568-12.972-8.636-20.844-8.636-16.255 0-29.479 13.225-29.479 29.479v32.53h-31.221v-31.86c0-4.143-3.357-7.5-7.5-7.5s-7.5 3.357-7.5 7.5v31.86h-29.83v-79.313c0-.842.686-1.527 1.528-1.527h195.542v80.841zm0-259.59v14.757c-9.688 12.134-14.993 27.19-14.993 42.714s5.305 30.583 14.993 42.721v35.509h-25.787v-5c0-20.989-11.14-40.805-29.072-51.713l-29.178-17.749v-33.078c0-4.143-3.357-7.5-7.5-7.5s-7.5 3.357-7.5 7.5v33.077l-29.178 17.749c-17.933 10.908-29.072 30.724-29.072 51.713v5h-18.683v-114.552c0-15.131-12.51-26.968-17.889-31.354 0-.001 0-.001-.001-.001l-13.002-10.602c-2.544-2.075-6.143-2.253-8.882-.439l-16.001 10.602c-.206.137-.405.283-.598.439-9.463 7.718-14.89 19.146-14.89 31.355l.002 238.441h-30.45v-159.398c9.688-12.138 14.993-27.195 14.993-42.717s-5.305-30.579-14.993-42.717v-14.758c0-37.233 18.381-71.966 49.168-92.908l89.672-60.981 89.671 60.98c30.789 20.944 49.17 55.677 49.17 92.91z"/><path d="m252.91 106.292v7.952h-7.952c-4.143 0-7.5 3.357-7.5 7.5s3.357 7.5 7.5 7.5h7.952v7.953c0 4.143 3.357 7.5 7.5 7.5s7.5-3.357 7.5-7.5v-7.953h7.953c4.143 0 7.5-3.357 7.5-7.5s-3.357-7.5-7.5-7.5h-7.953v-7.952c0-4.143-3.357-7.5-7.5-7.5s-7.5 3.358-7.5 7.5z"/><path d="m260.41 175.427c-4.147 0-7.508 3.361-7.508 7.508s3.361 7.508 7.508 7.508c4.146 0 7.508-3.361 7.508-7.508s-3.361-7.508-7.508-7.508z"/><circle cx="310.203" cy="153.705" r="7.508"/></g></g></svg>